<?xml version="1.0" encoding="UTF-8"?>
<svg version="1.1" xmlns="http://www.w3.org/2000/svg" width="172" height="100">
<path d="M0 0 C0.495 1.485 0.495 1.485 1 3 C0.56768066 3.41137207 0.13536133 3.82274414 -0.31005859 4.24658203 C-20.80896308 23.88524033 -33.75490506 43.27136537 -37 72 C-34.34849082 66.83058208 -31.80194544 61.63630361 -29.46484375 56.31640625 C-29.04783203 55.36958984 -28.63082031 54.42277344 -28.20117188 53.44726562 C-27.34804037 51.49969957 -26.50184406 49.5490829 -25.66210938 47.59570312 C-25.24638672 46.65791016 -24.83066406 45.72011719 -24.40234375 44.75390625 C-23.85308228 43.49042358 -23.85308228 43.49042358 -23.29272461 42.20141602 C-21.83324838 39.71603411 -20.43781161 38.50850506 -18 37 C-14.20843325 36.38869173 -10.64319397 36.78560201 -7 38 C-5.70314972 40.1987507 -4.58183859 42.32432142 -3.5 44.625 C-3.05720703 45.53185547 -3.05720703 45.53185547 -2.60546875 46.45703125 C-0.60751435 50.58496346 1.21860237 54.77461172 3 59 C3.02578125 57.81921875 3.0515625 56.6384375 3.078125 55.421875 C3.13441397 53.86454677 3.19176114 52.30725653 3.25 50.75 C3.26417969 49.97269531 3.27835937 49.19539063 3.29296875 48.39453125 C3.54087599 42.59350177 3.54087599 42.59350177 5.921875 39.515625 C9.03365159 37.2461338 10.99207383 36.77392216 14.8125 36.625 C15.66457031 36.57601562 16.51664062 36.52703125 17.39453125 36.4765625 C21.146685 37.2303685 22.49787059 39.15674866 25 42 C26.49804688 44.92260742 26.49804688 44.92260742 27.71875 48.10546875 C28.17636719 49.25337891 28.63398437 50.40128906 29.10546875 51.58398438 C30.03910184 53.99652367 30.96875858 56.41060537 31.89453125 58.82617188 C32.35214844 59.97021484 32.80976562 61.11425781 33.28125 62.29296875 C33.88549805 63.86340942 33.88549805 63.86340942 34.50195312 65.46557617 C35.81652387 68.166738 35.81652387 68.166738 38.48242188 69.41918945 C41.1050369 70.25465193 41.1050369 70.25465193 44 69 C45.12183708 65.63448877 45.20800968 62.90939768 45.31640625 59.36328125 C45.35830078 58.06455078 45.40019531 56.76582031 45.44335938 55.42773438 C45.48316987 54.05599239 45.52288216 52.68424756 45.5625 51.3125 C45.60570835 49.92902355 45.64932339 48.54555973 45.69335938 47.16210938 C45.79958028 43.77484281 45.90162358 40.38750201 46 37 C47.65 37 49.3 37 51 37 C51.33 37.99 51.66 38.98 52 40 C53.0621875 39.50886719 54.124375 39.01773438 55.21875 38.51171875 C60.90625637 36.37890386 66.50291457 36.67261583 72.5 36.8125 C74.16289062 36.83280273 74.16289062 36.83280273 75.859375 36.85351562 C78.57343232 36.88861119 81.28645193 36.9377773 84 37 C84 38.32 84 39.64 84 41 C83.03960815 41.029729 83.03960815 41.029729 82.05981445 41.06005859 C79.1436472 41.15563601 76.22816428 41.26518214 73.3125 41.375 C72.30509766 41.4059375 71.29769531 41.436875 70.25976562 41.46875 C68.79506836 41.52675781 68.79506836 41.52675781 67.30078125 41.5859375 C66.40528564 41.6173584 65.50979004 41.6487793 64.5871582 41.68115234 C59.50499455 42.30749053 56.30092425 44.109625 53 48 C50.94639963 54.16080111 51.4507053 61.0516457 54 67 C58.63385492 69.79517101 63.89253687 69.29504272 69.125 69.25 C70.03121094 69.25773437 70.93742188 69.26546875 71.87109375 69.2734375 C73.17626953 69.26957031 73.17626953 69.26957031 74.5078125 69.265625 C75.29816895 69.26336914 76.08852539 69.26111328 76.90283203 69.25878906 C79.30337079 69.1217583 79.30337079 69.1217583 82 67 C81.74438677 64.6568787 81.40729228 62.32156597 81 60 C78.56612247 58.78306124 76.58161154 58.68040104 73.875 58.4375 C72.96492187 58.35371094 72.05484375 58.26992187 71.1171875 58.18359375 C70.41851562 58.12300781 69.71984375 58.06242187 69 58 C69.33 56.35 69.66 54.7 70 53 C76.22177125 52.74605015 81.58013577 52.89037478 86.4375 57.125 C88.47244845 60.86930515 88.98800684 63.82841558 88 68 C85.41796087 71.29927222 82.89687303 73.50069461 79 75 C76.40848764 75.22024995 73.96387271 75.33184702 71.375 75.3125 C70.6644043 75.31121094 69.95380859 75.30992188 69.22167969 75.30859375 C64.16597682 75.21679706 59.77405453 74.45313947 55.015625 72.65625 C52.71938006 71.7936093 52.71938006 71.7936093 49 72 C47.88625 72.7425 47.88625 72.7425 46.75 73.5 C43.16375341 75.4561345 40.01140329 75.77493018 36 75 C31.66587133 73.18742458 30.13153707 70.94496241 28.32495117 66.65478516 C28.05271729 65.96433105 27.7804834 65.27387695 27.5 64.5625 C27.20520752 63.85399902 26.91041504 63.14549805 26.60668945 62.41552734 C25.72232016 60.28296139 24.85905742 58.14286822 24 56 C23.06565206 53.70704638 22.12856591 51.41520465 21.1875 49.125 C20.80980469 48.17882813 20.43210937 47.23265625 20.04296875 46.2578125 C19.09541686 43.8651525 19.09541686 43.8651525 17 42 C13.93008319 42.16442277 13.93008319 42.16442277 11 43 C9.55037817 45.89924366 9.77873519 48.52300355 9.68359375 51.7578125 C9.6524221 52.75238968 9.6524221 52.75238968 9.62062073 53.76705933 C9.55520769 55.88626694 9.49627895 58.005599 9.4375 60.125 C9.39430691 61.56121081 9.35069236 62.99740902 9.30664062 64.43359375 C9.19953501 67.95559594 9.09824425 71.47773825 9 75 C7.35 75 5.7 75 4 75 C2.99406289 73.04470975 1.9957964 71.08547417 1 69.125 C0.68748291 68.51309814 0.37496582 67.90119629 0.05297852 67.27075195 C-1.79335658 63.59864228 -3.48259148 59.90401635 -5.03515625 56.09765625 C-5.37353516 55.28216309 -5.71191406 54.46666992 -6.06054688 53.62646484 C-6.72095568 52.01889078 -7.36213561 50.40326263 -7.98242188 48.77978516 C-8.855406 46.67497448 -9.65224953 44.83826422 -11 43 C-14.11761352 41.84929536 -14.11761352 41.84929536 -17 42 C-17.5259375 43.7325 -17.5259375 43.7325 -18.0625 45.5 C-26.99102902 72.24327177 -26.99102902 72.24327177 -34.25 77.6875 C-38.33115753 78.1512679 -42.2666444 77.78278217 -46 76 C-48.18406737 72.71274472 -49.82724304 69.31441704 -51.375 65.69140625 C-51.80296875 64.69689453 -52.2309375 63.70238281 -52.671875 62.67773438 C-53.11015625 61.64970703 -53.5484375 60.62167969 -54 59.5625 C-57.22283946 51.89758485 -57.22283946 51.89758485 -60.8125 44.40234375 C-62 42 -62 42 -62 40 C-60.02 40 -58.04 40 -56 40 C-55.37170288 41.40076782 -55.37170288 41.40076782 -54.73071289 42.82983398 C-53.18059946 46.28415596 -51.62750266 49.73712957 -50.07348633 53.18969727 C-49.40046634 54.68607376 -48.72826325 56.18281794 -48.05688477 57.67993164 C-47.09343998 59.82795134 -46.12709472 61.97464492 -45.16015625 64.12109375 C-44.70854881 65.13048256 -44.70854881 65.13048256 -44.24781799 66.16026306 C-42.97123868 69.30249055 -42.97123868 69.30249055 -41 72 C-40.78561724 66.19217619 -41.36007103 61.41842496 -43.0625 55.875 C-43.28510498 55.14071777 -43.50770996 54.40643555 -43.73706055 53.64990234 C-47.18677511 42.76560008 -52.38627471 33.23620611 -59.3984375 24.20703125 C-61 22 -61 22 -62 19 C-62.66 19 -63.32 19 -64 19 C-66.02332616 17.13231431 -66.93298787 15.71661952 -67.19140625 12.953125 C-67.18788604 10.9677277 -67.09914617 8.98292332 -67 7 C-56.60479485 10.92584875 -45.4322835 17.7710715 -39 27 C-38.46632813 26.27683594 -37.93265625 25.55367187 -37.3828125 24.80859375 C-34.81954071 21.7872947 -32.02390995 19.42823496 -28.875 17.0625 C-28.29951416 16.62647461 -27.72402832 16.19044922 -27.13110352 15.74121094 C-18.64178698 9.39630353 -9.52326644 4.61436621 0 0 Z M-35 31 C-35.66 32.65 -36.32 34.3 -37 36 C-38.65 35.01 -40.3 34.02 -42 33 C-41.01 36.63 -40.02 40.26 -39 44 C-37.1727089 41.25906335 -36.06301822 38.86174676 -34.875 35.8125 C-34.34519531 34.46091797 -34.34519531 34.46091797 -33.8046875 33.08203125 C-33.53914063 32.39496094 -33.27359375 31.70789063 -33 31 C-33.66 31 -34.32 31 -35 31 Z " fill="#2778B6" transform="translate(67,10)"/>
<path d="M0 0 C1.29685028 2.1987507 2.41816141 4.32432142 3.5 6.625 C3.79519531 7.22957031 4.09039062 7.83414063 4.39453125 8.45703125 C6.39248565 12.58496346 8.21860237 16.77461172 10 21 C10.04898438 19.80761719 10.09796875 18.61523438 10.1484375 17.38671875 C10.22347604 15.82028932 10.2990234 14.25388421 10.375 12.6875 C10.42140625 11.50897461 10.42140625 11.50897461 10.46875 10.30664062 C10.50742188 9.54931641 10.54609375 8.79199219 10.5859375 8.01171875 C10.6173584 7.31522217 10.6487793 6.61872559 10.68115234 5.90112305 C11 4 11 4 13 1 C13.66 1 14.32 1 15 1 C14.67620361 1.54422607 14.35240723 2.08845215 14.01879883 2.64916992 C12.03270306 7.2319919 12.67343234 12.39163172 12.6875 17.3125 C12.67138672 18.42818359 12.65527344 19.54386719 12.63867188 20.69335938 C12.63498552 26.91224337 12.998344 31.51148389 16 37 C14.35 37 12.7 37 11 37 C9.99406289 35.04470975 8.9957964 33.08547417 8 31.125 C7.53122437 30.20714722 7.53122437 30.20714722 7.05297852 29.27075195 C5.20664342 25.59864228 3.51740852 21.90401635 1.96484375 18.09765625 C1.62646484 17.28216309 1.28808594 16.46666992 0.93945312 15.62646484 C0.27904432 14.01889078 -0.36213561 12.40326263 -0.98242188 10.77978516 C-1.855406 8.67497448 -2.65224953 6.83826422 -4 5 C-7.11761352 3.84929536 -7.11761352 3.84929536 -10 4 C-10.37125 5.216875 -10.7425 6.43375 -11.125 7.6875 C-13.22024496 14.02384468 -16.12789535 19.98624042 -19 26 C-19.33 25.34 -19.66 24.68 -20 24 C-21.65 24.66 -23.3 25.32 -25 26 C-23.3700326 20.78242394 -21.30816639 15.8159278 -19.125 10.8125 C-18.78597656 10.00619141 -18.44695313 9.19988281 -18.09765625 8.36914062 C-14.26139831 -0.40465842 -9.63325772 -3.21108591 0 0 Z " fill="#3480BD" transform="translate(60,48)"/>
<path d="M0 0 C0.85207031 -0.04898438 1.70414063 -0.09796875 2.58203125 -0.1484375 C6.33213083 0.60495582 7.68483509 2.53552694 10.1875 5.375 C11.68554688 8.26586914 11.68554688 8.26586914 12.90625 11.41015625 C13.36386719 12.54904297 13.82148437 13.68792969 14.29296875 14.86132812 C15.22397858 17.24883373 16.15366262 19.63685676 17.08203125 22.02539062 C17.53964844 23.16298828 17.99726562 24.30058594 18.46875 25.47265625 C18.87158203 26.50914307 19.27441406 27.54562988 19.68945312 28.61352539 C21.39836615 31.76370714 23.27428051 33.33568531 26.1875 35.375 C23.8775 36.035 21.5675 36.695 19.1875 37.375 C14.75652383 33.77483186 13.22273039 29.28462704 11.1875 24.125 C7.67003948 13.11224771 7.67003948 13.11224771 0.625 5.1875 C-1.80025478 5.17160047 -1.80025478 5.17160047 -3.43286133 6.47192383 C-5.46444202 9.27429005 -5.24927578 11.57933076 -5.32421875 15.01171875 C-5.35966797 16.31044922 -5.39511719 17.60917969 -5.43164062 18.94726562 C-5.4547405 20.31900517 -5.4775229 21.6907501 -5.5 23.0625 C-5.53317542 24.44599607 -5.56766531 25.82946129 -5.60351562 27.21289062 C-5.68613241 30.60017883 -5.75524058 33.98720357 -5.8125 37.375 C-8.69814043 34.74028483 -9.72210133 32.80905166 -9.97363281 28.81884766 C-10.01899673 25.54578861 -10.04775519 22.27334695 -10.0625 19 C-10.083125 17.86304687 -10.10375 16.72609375 -10.125 15.5546875 C-10.13015625 14.45640625 -10.1353125 13.358125 -10.140625 12.2265625 C-10.1499707 11.22447754 -10.15931641 10.22239258 -10.16894531 9.18994141 C-9.75293195 5.90457558 -8.75462844 4.03404926 -6.8125 1.375 C-4.40736979 0.17243489 -2.68396436 0.1046223 0 0 Z " fill="#2D74B5" transform="translate(81.8125,46.625)"/>
<path d="M0 0 C1.98 0 3.96 0 6 0 C7.97739408 4.35909089 9.95284909 8.71905322 11.92651367 13.07983398 C12.59818168 14.56314815 13.27037859 16.04622293 13.94311523 17.52905273 C14.91008481 19.66066759 15.87514806 21.79313652 16.83984375 23.92578125 C17.14091537 24.58838455 17.441987 25.25098785 17.75218201 25.93367004 C18.95714784 28.60155348 20.07343632 31.22030895 21 34 C23.42919865 34.13440778 23.42919865 34.13440778 26 33 C26.981235 31.05091047 27.59194674 29.09323658 28.2421875 27.01171875 C29.24775374 24.34230322 30.82574987 22.79937942 33 21 C33.66 21.33 34.32 21.66 35 22 C35.35344342 27.7055866 33.26631827 31.43982159 30 36 C27.37828545 37.96628591 26.00266467 38.07794566 22.7890625 37.828125 C20.28822716 37.42345909 18.29260827 37.09478485 16 36 C13.81593263 32.71274472 12.17275696 29.31441704 10.625 25.69140625 C9.98304687 24.19963867 9.98304687 24.19963867 9.328125 22.67773438 C8.88984375 21.64970703 8.4515625 20.62167969 8 19.5625 C4.77716054 11.89758485 4.77716054 11.89758485 1.1875 4.40234375 C0 2 0 2 0 0 Z " fill="#3B7CB9" transform="translate(5,50)"/>
<path d="M0 0 C6.22177125 -0.25394985 11.58013577 -0.10962522 16.4375 4.125 C18.47244845 7.86930515 18.98800684 10.82841558 18 15 C15.42511256 18.29013395 12.90534007 20.54200638 9 22 C6.21175242 22.13997227 3.53172884 22.1888913 0.75 22.125 C0.00492188 22.11597656 -0.74015625 22.10695313 -1.5078125 22.09765625 C-3.33868059 22.07418358 -5.16938238 22.03831525 -7 22 C-7 21.67 -7 21.34 -7 21 C-2.05 21 2.9 21 8 21 C8 20.01 8 19.02 8 18 C2.72 18 -2.56 18 -8 18 C-8 17.67 -8 17.34 -8 17 C-6.80761719 16.95101562 -5.61523438 16.90203125 -4.38671875 16.8515625 C-2.82028932 16.77652396 -1.25388421 16.7009766 0.3125 16.625 C1.09818359 16.5940625 1.88386719 16.563125 2.69335938 16.53125 C3.8293457 16.47324219 3.8293457 16.47324219 4.98828125 16.4140625 C5.68477783 16.3826416 6.38127441 16.3512207 7.09887695 16.31884766 C9.32532739 16.07881747 9.32532739 16.07881747 12 14 C11.74438677 11.6568787 11.40729228 9.32156597 11 7 C8.56612247 5.78306124 6.58161154 5.68040104 3.875 5.4375 C2.96492187 5.35371094 2.05484375 5.26992187 1.1171875 5.18359375 C0.41851562 5.12300781 -0.28015625 5.06242187 -1 5 C-0.67 3.35 -0.34 1.7 0 0 Z " fill="#4380BB" transform="translate(137,63)"/>
<path d="M0 0 C1.65 0 3.3 0 5 0 C5.33 0.99 5.66 1.98 6 3 C7.0621875 2.50886719 8.124375 2.01773438 9.21875 1.51171875 C14.90625637 -0.62109614 20.50291457 -0.32738417 26.5 -0.1875 C28.16289062 -0.16719727 28.16289062 -0.16719727 29.859375 -0.14648438 C32.57343232 -0.11138881 35.28645193 -0.0622227 38 0 C38 1.32 38 2.64 38 4 C37.35973877 4.01981934 36.71947754 4.03963867 36.05981445 4.06005859 C33.1436472 4.15563601 30.22816428 4.26518214 27.3125 4.375 C26.30509766 4.4059375 25.29769531 4.436875 24.25976562 4.46875 C22.79506836 4.52675781 22.79506836 4.52675781 21.30078125 4.5859375 C20.40528564 4.6173584 19.50979004 4.6487793 18.5871582 4.68115234 C13.45774414 5.31331378 10.3828419 7.15055922 7 11 C6.01 12.485 6.01 12.485 5 14 C5.020625 12.865625 5.04125 11.73125 5.0625 10.5625 C5.41577477 7.18424326 5.41577477 7.18424326 4 6 C3.95936168 4.33382885 3.957279 2.66611905 4 1 C3.01 1 2.02 1 1 1 C1 10.24 1 19.48 1 29 C0.67 29 0.34 29 0 29 C0 19.43 0 9.86 0 0 Z " fill="#228DCB" transform="translate(113,47)"/>
<path d="M0 0 C2.9375 -0.1875 2.9375 -0.1875 6 0 C6.99 0 7.98 0 9 0 C11 0 13 0 15 0 C15 0.66 15 1.32 15 2 C14.195625 2.12375 13.39125 2.2475 12.5625 2.375 C11.2940625 2.684375 11.2940625 2.684375 10 3 C9.67 3.66 9.34 4.32 9 5 C10.32 5.33 11.64 5.66 13 6 C13 5.34 13 4.68 13 4 C12.34 3.67 11.68 3.34 11 3 C12.32 3 13.64 3 15 3 C15.33 2.01 15.66 1.02 16 0 C20.29 0 24.58 0 29 0 C28.01 0.33 27.02 0.66 26 1 C26 1.66 26 2.32 26 3 C26.99 3.33 27.98 3.66 29 4 C28.67 5.32 28.34 6.64 28 8 C25.08327116 8.02700675 22.16679323 8.04684237 19.25 8.0625 C18.425 8.07087891 17.6 8.07925781 16.75 8.08789062 C15.55117187 8.09272461 15.55117187 8.09272461 14.328125 8.09765625 C13.5949707 8.10289307 12.86181641 8.10812988 12.10644531 8.11352539 C10 8 10 8 7.90136719 7.46655273 C5.38442024 6.84895057 3.48366757 7.37908311 1 8 C0.01 6.35 -0.98 4.7 -2 3 C-1.34 2.01 -0.68 1.02 0 0 Z M2 1 C1.67 2.32 1.34 3.64 1 5 C2.32 5 3.64 5 5 5 C4.67 3.68 4.34 2.36 4 1 C3.34 1 2.68 1 2 1 Z M20 1 C20 1.66 20 2.32 20 3 C20.99 3 21.98 3 23 3 C23 2.34 23 1.68 23 1 C22.01 1 21.02 1 20 1 Z M20 4 C20 4.66 20 5.32 20 6 C22.31 6 24.62 6 27 6 C26.02149805 4.97895449 25.02019573 3.9793879 24 3 C22.63106761 2.94729537 22.63106761 2.94729537 20 4 Z " fill="#8D8D8D" transform="translate(120,86)"/>
<path d="M0 0 C2.4375 1.125 2.4375 1.125 4 3 C4.5 6 4.5 6 4 9 C2.21868619 11.22664226 0.85665718 11.86038384 -1.94140625 12.31640625 C-5.25168155 12.50539066 -7.41701147 12.4593243 -10.0625 10.375 C-11.32868536 7.16733041 -10.99549067 5.2708979 -10 2 C-6.28986601 -0.47342266 -4.38939738 -0.38503486 0 0 Z " fill="#1C62A8" transform="translate(32,11)"/>
<path d="M0 0 C0.33 0 0.66 0 1 0 C1.13277344 0.81984375 1.26554687 1.6396875 1.40234375 2.484375 C1.57894531 3.56203125 1.75554687 4.6396875 1.9375 5.75 C2.11152344 6.81734375 2.28554687 7.8846875 2.46484375 8.984375 C3.04783471 12.54087157 3.04783471 12.54087157 4 16 C6.36186139 17.26145768 6.36186139 17.26145768 9 18 C9.99 18.33 10.98 18.66 12 19 C14.73289293 19.22797562 17.45042204 19.41668187 20.1875 19.5625 C20.93708984 19.60568359 21.68667969 19.64886719 22.45898438 19.69335938 C24.30578375 19.79922685 26.15286834 19.9000976 28 20 C28 20.99 28 21.98 28 23 C24.79184155 23.08774066 21.58399538 23.14063706 18.375 23.1875 C17.47136719 23.21263672 16.56773437 23.23777344 15.63671875 23.26367188 C10.39553568 23.32105709 6.40226106 23.20292712 2 20 C0.9765625 17.87109375 0.9765625 17.87109375 0.625 15.4375 C0.49609375 14.56222656 0.3671875 13.68695313 0.234375 12.78515625 C-0.12518509 8.51238386 -0.16402836 4.28296286 0 0 Z " fill="#4C63A6" transform="translate(117,61)"/>
<path d="M0 0 C3.96 0 7.92 0 12 0 C11.01 0.33 10.02 0.66 9 1 C9 1.66 9 2.32 9 3 C9.66 2.505 10.32 2.01 11 1.5 C14.96633241 -0.48316621 17.60303262 -0.22357461 22 0 C22 0.99 22 1.98 22 3 C22.99 3 23.98 3 25 3 C25 2.01 25 1.02 25 0 C25.66 0 26.32 0 27 0 C27 2.64 27 5.28 27 8 C26.34 7.67 25.68 7.34 25 7 C25 6.01 25 5.02 25 4 C24.01 4 23.02 4 22 4 C22 5.32 22 6.64 22 8 C17 8 12 8 7 8 C7 5.69 7 3.38 7 1 C6.34 1 5.68 1 5 1 C5 3.31 5 5.62 5 8 C4.34 8 3.68 8 3 8 C3 5.69 3 3.38 3 1 C2.01 1.33 1.02 1.66 0 2 C0 1.34 0 0.68 0 0 Z M16 1 C15.34 2.32 14.68 3.64 14 5 C15.06645115 6.29633621 15.06645115 6.29633621 17.5625 6.0625 C18.366875 6.041875 19.17125 6.02125 20 6 C20 4.35 20 2.7 20 1 C18.68 1 17.36 1 16 1 Z M9 4 C9 4.66 9 5.32 9 6 C10.32 5.67 11.64 5.34 13 5 C11.68 4.67 10.36 4.34 9 4 Z " fill="#A1A1A2" transform="translate(70,86)"/>
<path d="M0 0 C0.99 0.33 1.98 0.66 3 1 C3.35344342 6.7055866 1.26631827 10.43982159 -2 15 C-4.25 16.6875 -4.25 16.6875 -7 17 C-10.0653557 16.53993818 -13.01913115 15.84425479 -16 15 C-16 13.68 -16 12.36 -16 11 C-12.7 11.33 -9.4 11.66 -6 12 C-5.3503125 10.14375 -5.3503125 10.14375 -4.6875 8.25 C-3.50868303 5.08403441 -2.24768753 2.56878575 0 0 Z " fill="#475AA1" transform="translate(37,71)"/>
<path d="M0 0 C0.99 0 1.98 0 3 0 C3.33 0.66 3.66 1.32 4 2 C4.33 1.34 4.66 0.68 5 0 C9.33333333 0 13.66666667 0 18 0 C18 1.98 18 3.96 18 6 C18.99 6 19.98 6 21 6 C21 6.66 21 7.32 21 8 C13 8 13 8 10.5625 7.5 C7.78081041 6.87232643 7.78081041 6.87232643 4 7 C3.67 6.34 3.34 5.68 3 5 C2.67 5.99 2.34 6.98 2 8 C1.34 8 0.68 8 0 8 C0 5.36 0 2.72 0 0 Z M11 1 C10.01 2.485 10.01 2.485 9 4 C9.33 4.66 9.66 5.32 10 6 C11.32 5.67 12.64 5.34 14 5 C14 4.01 14 3.02 14 2 C13.01 1.67 12.02 1.34 11 1 Z " fill="#989898" transform="translate(98,86)"/>
<path d="M0 0 C1.65 0 3.3 0 5 0 C5.33 0.99 5.66 1.98 6 3 C6.5775 2.67 7.155 2.34 7.75 2 C10 1 10 1 14 1 C14 1.99 14 2.98 14 4 C14.66 4.33 15.32 4.66 16 5 C15.2575 5.2475 14.515 5.495 13.75 5.75 C9.59629524 7.63804762 7.50235228 10.24647158 5 14 C5.020625 12.865625 5.04125 11.73125 5.0625 10.5625 C5.41577477 7.18424326 5.41577477 7.18424326 4 6 C3.95936168 4.33382885 3.957279 2.66611905 4 1 C3.01 1 2.02 1 1 1 C1 10.24 1 19.48 1 29 C0.67 29 0.34 29 0 29 C0 19.43 0 9.86 0 0 Z " fill="#3C8FC8" transform="translate(113,47)"/>
<path d="M0 0 C1.65 0 3.3 0 5 0 C5.33 0.66 5.66 1.32 6 2 C6.99 2.33 7.98 2.66 9 3 C9 4.98 9 6.96 9 9 C5.7 8.67 2.4 8.34 -1 8 C-0.67 5.36 -0.34 2.72 0 0 Z " fill="#085DA7" transform="translate(26,12)"/>
<path d="M0 0 C3.63 0 7.26 0 11 0 C10.01 0.33 9.02 0.66 8 1 C8 1.66 8 2.32 8 3 C8.99 3.33 9.98 3.66 11 4 C11 4.99 11 5.98 11 7 C7.37 7 3.74 7 0 7 C0 4.69 0 2.38 0 0 Z M2 1 C2 1.66 2 2.32 2 3 C2.99 3 3.98 3 5 3 C5 2.34 5 1.68 5 1 C4.01 1 3.02 1 2 1 Z M2 4 C2 4.66 2 5.32 2 6 C4.31 6 6.62 6 9 6 C8.02149805 4.97895449 7.02019573 3.9793879 6 3 C4.63106761 2.94729537 4.63106761 2.94729537 2 4 Z " fill="#7A797A" transform="translate(138,86)"/>
<path d="M0 0 C3.96 0 7.92 0 12 0 C11.01 0.33 10.02 0.66 9 1 C9 2.65 9 4.3 9 6 C10.32 6.33 11.64 6.66 13 7 C12 8 12 8 9.4375 8.0625 C8.633125 8.041875 7.82875 8.02125 7 8 C7 5.69 7 3.38 7 1 C6.34 1 5.68 1 5 1 C5 3.31 5 5.62 5 8 C4.34 8 3.68 8 3 8 C3 5.69 3 3.38 3 1 C2.01 1.33 1.02 1.66 0 2 C0 1.34 0 0.68 0 0 Z " fill="#7C7B7C" transform="translate(70,86)"/>
<path d="M0 0 C4.29 0.66 8.58 1.32 13 2 C12.34 3.32 11.68 4.64 11 6 C9.54119891 5.85892253 8.08296449 5.71197585 6.625 5.5625 C5.40683594 5.44068359 5.40683594 5.44068359 4.1640625 5.31640625 C2 5 2 5 0 4 C0 2.68 0 1.36 0 0 Z " fill="#39539D" transform="translate(21,82)"/>
<path d="M0 0 C4.95 0 9.9 0 15 0 C15 0.99 15 1.98 15 3 C10.05 3 5.1 3 0 3 C0 2.01 0 1.02 0 0 Z " fill="#1D398E" transform="translate(130,81)"/>
<path d="M0 0 C0.625 1.875 0.625 1.875 1 4 C0.34 4.66 -0.32 5.32 -1 6 C-3.625 5.625 -3.625 5.625 -6 5 C-6.33 3.35 -6.66 1.7 -7 0 C-4.3333581 -1.33332095 -2.83319697 -0.67102033 0 0 Z " fill="#3C7BB8" transform="translate(57,67)"/>
<path d="M0 0 C0 1.98 0 3.96 0 6 C0.99 6 1.98 6 3 6 C3 6.66 3 7.32 3 8 C-5.375 8 -5.375 8 -9 7 C-7.68 6.34 -6.36 5.68 -5 5 C-5 3.68 -5 2.36 -5 1 C-2 0 -2 0 0 0 Z " fill="#7D7D7D" transform="translate(116,86)"/>
<path d="M0 0 C0.99 0.33 1.98 0.66 3 1 C3 5.29 3 9.58 3 14 C0.65454672 11.65454672 0.04491112 10.04014162 -0.09765625 6.73828125 C-0.08605469 5.93777344 -0.07445313 5.13726562 -0.0625 4.3125 C-0.05347656 3.50425781 -0.04445313 2.69601563 -0.03515625 1.86328125 C-0.02355469 1.24839844 -0.01195313 0.63351563 0 0 Z " fill="#1A3A8F" transform="translate(72,69)"/>
<path d="M0 0 C1.98 0 3.96 0 6 0 C6.99 1.98 7.98 3.96 9 6 C7.35 5.67 5.7 5.34 4 5 C3.67 5.66 3.34 6.32 3 7 C1.79371992 4.66785852 0.8345262 2.50357861 0 0 Z " fill="#5974B0" transform="translate(17,77)"/>
<path d="M0 0 C1.81325551 0.11351517 3.62563357 0.24112961 5.4375 0.375 C6.95150391 0.47941406 6.95150391 0.47941406 8.49609375 0.5859375 C9.73552734 0.79089844 9.73552734 0.79089844 11 1 C11.33 1.66 11.66 2.32 12 3 C8.78548731 4.60725635 5.56387464 4.05748185 2 4 C1.34 2.68 0.68 1.36 0 0 Z " fill="#305986" transform="translate(22,19)"/>
<path d="M0 0 C0.66 0 1.32 0 2 0 C1.67854004 0.5662207 1.35708008 1.13244141 1.02587891 1.71582031 C-0.07289756 4.16231069 -0.30601568 5.88172002 -0.4140625 8.546875 C-0.45273438 9.39121094 -0.49140625 10.23554687 -0.53125 11.10546875 C-0.5621875 11.97816406 -0.593125 12.85085937 -0.625 13.75 C-0.66367188 14.63816406 -0.70234375 15.52632812 -0.7421875 16.44140625 C-0.83620873 18.6273998 -0.92186143 20.81339062 -1 23 C-1.66 23.33 -2.32 23.66 -3 24 C-2.8901717 20.56183853 -2.75953137 17.12477652 -2.625 13.6875 C-2.5940625 12.71103516 -2.563125 11.73457031 -2.53125 10.72851562 C-2.49257812 9.79072266 -2.45390625 8.85292969 -2.4140625 7.88671875 C-2.3826416 7.02264404 -2.3512207 6.15856934 -2.31884766 5.26831055 C-2 3 -2 3 0 0 Z " fill="#4D86BE" transform="translate(73,49)"/>
<path d="M0 0 C0.33 0.99 0.66 1.98 1 3 C-1.31 4.98 -3.62 6.96 -6 9 C-6.33 7.02 -6.66 5.04 -7 3 C-4.69 2.01 -2.38 1.02 0 0 Z " fill="#6CA4C1" transform="translate(67,10)"/>
<path d="M0 0 C0.66 0 1.32 0 2 0 C2 2.31 2 4.62 2 7 C5.3 7 8.6 7 12 7 C12 7.33 12 7.66 12 8 C7.71 8 3.42 8 -1 8 C-0.67 5.36 -0.34 2.72 0 0 Z " fill="#A9A9A9" transform="translate(136,86)"/>
<path d="M0 0 C2.31 0 4.62 0 7 0 C7 0.66 7 1.32 7 2 C5.02 2 3.04 2 1 2 C1 2.66 1 3.32 1 4 C3.31 4 5.62 4 8 4 C8 4.33 8 4.66 8 5 C5.03 5 2.06 5 -1 5 C-0.67 3.35 -0.34 1.7 0 0 Z " fill="#83AFD5" transform="translate(137,63)"/>
<path d="M0 0 C2.4375 1.125 2.4375 1.125 4 3 C4.25 6.1875 4.25 6.1875 4 9 C3.67 9 3.34 9 3 9 C3 7.35 3 5.7 3 4 C1.68 3.67 0.36 3.34 -1 3 C-1 2.34 -1 1.68 -1 1 C-2.65 1 -4.3 1 -6 1 C-6.33 1.66 -6.66 2.32 -7 3 C-7.66 2.34 -8.32 1.68 -9 1 C-5.94306678 -0.52846661 -3.37015453 -0.23242445 0 0 Z " fill="#6A8CBD" transform="translate(32,11)"/>
<path d="M0 0 C0.33 0.99 0.66 1.98 1 3 C1.99 3 2.98 3 4 3 C4 2.01 4 1.02 4 0 C4.66 0 5.32 0 6 0 C6 2.64 6 5.28 6 8 C5.34 7.67 4.68 7.34 4 7 C4 6.01 4 5.02 4 4 C3.01 4 2.02 4 1 4 C0.67 4.99 0.34 5.98 0 7 C0 4.69 0 2.38 0 0 Z " fill="#858585" transform="translate(91,86)"/>
<path d="M0 0 C0.99 0 1.98 0 3 0 C3.66 1.98 4.32 3.96 5 6 C4.34 5.67 3.68 5.34 3 5 C2.67 5.99 2.34 6.98 2 8 C1.34 8 0.68 8 0 8 C0 5.36 0 2.72 0 0 Z " fill="#717071" transform="translate(98,86)"/>
<path d="M0 0 C2.875 -0.1875 2.875 -0.1875 6 0 C6.66 0.99 7.32 1.98 8 3 C5.03 2.505 5.03 2.505 2 2 C1.67 3.65 1.34 5.3 1 7 C0.01 6.01 -0.98 5.02 -2 4 C-1.34 2.68 -0.68 1.36 0 0 Z " fill="#818182" transform="translate(120,86)"/>
<path d="M0 0 C1.65 0 3.3 0 5 0 C5 1.32 5 2.64 5 4 C3.02 4 1.04 4 -1 4 C-0.67 2.68 -0.34 1.36 0 0 Z " fill="#0075BE" transform="translate(26,15)"/>
<path d="M0 0 C0.33 0.99 0.66 1.98 1 3 C1.99 3 2.98 3 4 3 C3.67 5.64 3.34 8.28 3 11 C0.43383368 7.15075052 0.44902324 4.5650696 0 0 Z " fill="#1F4492" transform="translate(26,66)"/>
<path d="M0 0 C2.31 0 4.62 0 7 0 C7 0.99 7 1.98 7 3 C4.69 2.67 2.38 2.34 0 2 C0 1.34 0 0.68 0 0 Z " fill="#114093" transform="translate(138,81)"/>
</svg>
